<svg xmlns="http://www.w3.org/2000/svg" viewBox="0 0 24 30" x="0px" y="0px"><path d="M14.6464466,17.3535534 L12,14.7071068 L9.35355339,17.3535534 C9.2597852,17.4473216 9.13260824,17.5 9,17.5 L5,17.5 C4.72385763,17.5 4.5,17.2761424 4.5,17 C4.5,16.7238576 4.72385763,16.5 5,16.5 L8.79289322,16.5 L11.6464466,13.6464466 C11.8417088,13.4511845 12.1582912,13.4511845 12.3535534,13.6464466 L15.2071068,16.5 L19,16.5 C19.2761424,16.5 19.5,16.7238576 19.5,17 C19.5,17.2761424 19.2761424,17.5 19,17.5 L15,17.5 C14.8673918,17.5 14.7402148,17.4473216 14.6464466,17.3535534 Z M10,8.375 C10,7.31345934 10.304482,6.40069328 10.8163108,5.62769045 C8.34766008,6.1691365 6.5,8.36879618 6.5,11 C6.5,12.1604685 6.85967263,13.2655542 7.51892697,14.1898551 C7.67927672,14.4146718 7.6270159,14.726911 7.40219915,14.8872607 C7.17738241,15.0476105 6.86514327,14.9953497 6.70479352,14.7705329 C5.92562372,13.6781058 5.5,12.3703869 5.5,11 C5.5,7.41014913 8.41014913,4.5 12,4.5 C12.4319321,4.62909402 12.4319321,4.62909402 12.48193,5.14663316 C12.412477,5.29908598 12.412477,5.29908598 12.3799023,5.33407836 C12.3356557,5.38310084 12.3356557,5.38310084 12.3047103,5.41299522 C12.2370504,5.47785171 12.1952528,5.51841939 12.1465592,5.56799643 C11.9760622,5.74158664 11.8172744,5.93094966 11.6664819,6.15522154 C11.2480315,6.77757809 11,7.50988905 11,8.375 C11,10.3770322 12.6229678,12 14.625,12 C15.4901109,12 16.2224219,11.7519685 16.8447785,11.3335181 C17.0690503,11.1827256 17.2584134,11.0239378 17.4320036,10.8534408 C17.4815806,10.8047472 17.5221483,10.7629496 17.5870048,10.6952897 C17.6168992,10.6643443 17.6168992,10.6643443 17.6659216,10.6200977 C17.700914,10.587523 17.700914,10.587523 17.8533668,10.51807 C18.370906,10.5680679 18.370906,10.5680679 18.5,11 C18.5,12.402914 18.053866,13.7397859 17.2401072,14.8466186 C17.0765347,15.0691015 16.7635749,15.1168578 16.541092,14.9532853 C16.3186091,14.7897128 16.2708528,14.476753 16.4344253,14.2542701 C16.8894078,13.6354265 17.2083597,12.9322378 17.3723984,12.1836304 C16.5993767,12.6954946 15.6865814,13 14.625,13 C12.070683,13 10,10.929317 10,8.375 Z"/><text x="0" y="39" fill="#000000" font-size="5px" font-weight="bold" font-family="'Helvetica Neue', Helvetica, Arial-Unicode, Arial, Sans-serif">Created by Jake Park</text><text x="0" y="44" fill="#000000" font-size="5px" font-weight="bold" font-family="'Helvetica Neue', Helvetica, Arial-Unicode, Arial, Sans-serif">from the Noun Project</text></svg>